# xmcd
#
# Track frame offsets:
#	150
#	18130
#	39945
#	61212
#	86040
#	116982
#	155655
#	171750
#	197102
#	217712
#	244485
#
# Disc length: 3793 seconds
#
# Revision: 0
# Processed by: cddbd v1.5.2PL0 Copyright (c) Steve Scherf et al.
# Submitted via: audiograbber 1.80
#
DISCID=900ecf0b
DTITLE=Todd Wolfe - Wolfe
DYEAR=2002
DGENRE=Blues
TTITLE0=Heaven
TTITLE1=Light of day
TTITLE2=Roll over
TTITLE3=Silver blue
TTITLE4=Black night
TTITLE5=Shame
TTITLE6=On the run
TTITLE7=Wing of the dove
TTITLE8=East of you
TTITLE9=Come in my kitchen
TTITLE10=Change will come
EXTD=
EXTT0=
EXTT1=
EXTT2=
EXTT3=
EXTT4=
EXTT5=
EXTT6=
EXTT7=
EXTT8=
EXTT9=
EXTT10=
PLAYORDER=
